<?xml version="1.0" encoding="iso-8859-1"?>
<!-- Generator: Adobe Illustrator 19.2.1, SVG Export Plug-In . SVG Version: 6.00 Build 0)  -->
<svg version="1.1" id="Layer_1" xmlns="http://www.w3.org/2000/svg" xmlns:xlink="http://www.w3.org/1999/xlink" x="0px" y="0px"
	 viewBox="0 0 40 40" style="enable-background:new 0 0 40 40;" xml:space="preserve">
<g>
	<polygon style="fill:#F5CE85;" points="17.896,12.714 19.053,6.929 20.947,6.929 22.104,12.714 	"/>
	<path style="fill:#967A44;" d="M20.537,7.429l0.957,4.786h-2.989l0.957-4.786H20.537 M21.357,6.429h-2.714l-1.357,6.786h5.429
		L21.357,6.429L21.357,6.429z"/>
</g>
<g>
	<path style="fill:#F5CE85;" d="M1.5,35.5v-4.028c2.083-0.231,3.741-1.89,3.972-3.972h29.056c0.231,2.083,1.89,3.741,3.972,3.972
		V35.5H1.5z"/>
	<path style="fill:#967A44;" d="M34.1,28c0.399,1.956,1.943,3.501,3.9,3.9V35H2v-3.1c1.956-0.399,3.501-1.943,3.9-3.9H34.1 M35,27H5
		c0,2.209-1.791,4-4,4v5h38v-5C36.791,31,35,29.209,35,27L35,27z"/>
</g>
<g>
	<path style="fill:#FFEEA3;" d="M3.5,27.5v-1.565c0-8.511,6.924-15.435,15.435-15.435h2.13c8.511,0,15.435,6.924,15.435,15.435V27.5
		H3.5z"/>
	<g>
		<path style="fill:#BA9B48;" d="M21.065,11C29.3,11,36,17.7,36,25.935V27H4v-1.065C4,17.7,10.7,11,18.935,11H21.065 M21.065,10
			h-2.13C10.134,10,3,17.134,3,25.935V28h34v-2.065C37,17.134,29.866,10,21.065,10L21.065,10z"/>
	</g>
</g>
<line style="fill:none;stroke:#967A44;stroke-miterlimit:10;" x1="38.321" y1="31.5" x2="1.679" y2="31.5"/>
<g>
	<path style="fill:#FFEEA3;" d="M16.5,7.5V6.667c0-1.195,0.972-2.167,2.167-2.167h2.667c1.195,0,2.167,0.972,2.167,2.167V7.5H16.5z"
		/>
	<path style="fill:#BA9B48;" d="M21.333,5C22.252,5,23,5.748,23,6.667V7h-6V6.667C17,5.748,17.748,5,18.667,5H21.333 M21.333,4
		h-2.667C17.194,4,16,5.194,16,6.667V8h8V6.667C24,5.194,22.806,4,21.333,4L21.333,4z"/>
</g>
</svg>
